<?xml version="1.0" encoding="UTF-8" standalone="no"?>
<svg
   width="900px"
   height="900px"
   viewBox="0 0 900 900"
   version="1.1"
   xml:space="preserve"
   id="SVGRoot"
   inkscape:version="1.4.3 (0d15f75, 2025-12-25)"
   sodipodi:docname="rotom ball.svg"
   inkscape:export-filename="rotom ball.svg"
   inkscape:export-xdpi="96"
   inkscape:export-ydpi="96"
   xmlns:inkscape="http://www.inkscape.org/namespaces/inkscape"
   xmlns:sodipodi="http://sodipodi.sourceforge.net/DTD/sodipodi-0.dtd"
   xmlns="http://www.w3.org/2000/svg"
   xmlns:svg="http://www.w3.org/2000/svg"><defs
   id="defs2"><inkscape:perspective
     sodipodi:type="inkscape:persp3d"
     inkscape:vp_x="0 : 450 : 1"
     inkscape:vp_y="0 : 1000 : 0"
     inkscape:vp_z="900 : 450 : 1"
     inkscape:persp3d-origin="450 : 300 : 1"
     id="perspective12" /></defs>
<sodipodi:namedview
   pagecolor="#a9a9a9"
   bordercolor="#292929"
   borderopacity="1"
   inkscape:showpageshadow="2"
   inkscape:pageopacity="0.0"
   inkscape:pagecheckerboard="0"
   inkscape:deskcolor="#232323"
   id="namedview1"
   inkscape:zoom="0.97121535"
   inkscape:cx="496.80022"
   inkscape:cy="389.71789"
   inkscape:window-width="1920"
   inkscape:window-height="1057"
   inkscape:window-x="-8"
   inkscape:window-y="-8"
   inkscape:window-maximized="1"
   inkscape:current-layer="layer8" />
<style
   type="text/css"
   id="style1">
g.prefab path {
  vector-effect:non-scaling-stroke;
  -inkscape-stroke:hairline;
  fill: none;
  fill-opacity: 1;
  stroke-opacity: 1;
  stroke: #00349c;
}
</style>

<g
   inkscape:groupmode="layer"
   id="layer8"
   inkscape:label="Aura"
   transform="translate(1.2875111e-6)"
   style="display:inline;opacity:1;mix-blend-mode:normal"><path
     style="display:inline;opacity:1;mix-blend-mode:normal;fill:none;fill-opacity:1;stroke:#1ac3e5;stroke-width:44.9124;stroke-linecap:round;stroke-linejoin:round;stroke-dasharray:none;stroke-opacity:1;paint-order:normal"
     d="m 435.25097,232.02657 24.26104,-105.05831 c 0,0 6.24597,-16.93198 13.55212,0.13116 6.15227,14.36844 24.67602,107.41792 24.67602,107.41792 0,0 -27.59842,5.34713 -62.48918,-2.49077 z"
     id="path12"
     sodipodi:nodetypes="ccscc"
     inkscape:label="horn" /><ellipse
     style="display:inline;opacity:1;mix-blend-mode:normal;fill:#f57a3d;fill-opacity:1;stroke:#1ac3e5;stroke-width:45.0238;stroke-linecap:round;stroke-linejoin:round;stroke-dasharray:none;stroke-opacity:1;paint-order:normal"
     id="ellipse26"
     transform="matrix(-0.54576944,0.83793539,-0.88801138,-0.45982148,0,0)"
     ry="61.26403"
     rx="78.140373"
     cy="-626.63678"
     cx="-31.726757"
     inkscape:label="outline orange right eye" /><ellipse
     style="display:inline;opacity:1;mix-blend-mode:normal;fill:none;fill-opacity:1;stroke:#1ac3e5;stroke-width:44.9607;stroke-linecap:round;stroke-linejoin:round;stroke-dasharray:none;stroke-opacity:1;paint-order:normal"
     id="ellipse27"
     transform="matrix(0.79638966,0.60478386,-0.55130502,0.83430377,0,0)"
     ry="63.895981"
     rx="86.166916"
     cy="-36.567024"
     cx="489.09485"
     inkscape:label="outline orange left eye" /><ellipse
     style="display:inline;opacity:1;mix-blend-mode:normal;fill:none;fill-opacity:1;stroke:#1ac3e5;stroke-width:52.3977;stroke-linecap:round;stroke-linejoin:round;stroke-dasharray:none;stroke-opacity:1;paint-order:normal"
     id="circle4"
     cx="449.92188"
     cy="449.53738"
     inkscape:label="outline"
     rx="222.37872"
     ry="221.67409" /><path
     style="fill:none;fill-opacity:1;stroke:#1ac3e5;stroke-width:10;stroke-linecap:round;stroke-linejoin:round;stroke-dasharray:none;stroke-opacity:1;paint-order:normal"
     d="M 242.99451,324.3359 156.50493,205.92756 271.82436,218.28321 75.163555,29.859495 139.0011,174.00879 73.10428,160.62349 234.75741,335.66191 Z"
     id="path27"
     sodipodi:nodetypes="cccccccc" /><path
     style="fill:none;fill-opacity:1;stroke:#1ac3e5;stroke-width:10;stroke-linecap:round;stroke-linejoin:round;stroke-dasharray:none;stroke-opacity:1;paint-order:normal"
     d="M 655.87925,325.36553 794.88035,207.98682 695.00548,209.01647 884.45884,32.948408 813.41382,183.27553 896.81448,179.15696 663.08671,337.72119 Z"
     id="path28"
     sodipodi:nodetypes="cccccccc" /><path
     style="fill:#ffffff;fill-opacity:1;stroke:none;stroke-width:10.2964;stroke-linecap:round;stroke-linejoin:round;stroke-dasharray:none;stroke-opacity:1;paint-order:normal"
     d="m 161.24541,247.88529 c -39.35554,-42.61413 -71.19652,-77.60827 -70.757727,-77.76474 0.438792,-0.15647 10.954647,1.80945 23.368557,4.36874 12.41392,2.55928 23.75227,4.65649 25.19634,4.66046 3.25086,0.009 5.09671,-1.73431 5.09671,-4.81342 0,-1.29224 -11.61302,-28.58408 -25.80671,-60.64855 -14.1937,-32.064459 -25.661286,-58.441835 -25.483539,-58.616386 0.177747,-0.174551 36.834199,34.677341 81.458779,77.448646 44.62458,42.77131 80.9899,77.91172 80.81182,78.0898 -0.17809,0.17809 -22.69123,-2.06299 -50.02921,-4.98016 -36.67233,-3.91323 -50.16734,-5.01478 -51.46713,-4.20108 -0.96895,0.60659 -1.8751,2.44618 -2.01366,4.08797 -0.2096,2.48341 6.75531,12.55909 41.44292,59.95283 22.93216,31.33228 41.69485,57.62666 41.69485,58.43195 0,0.8053 -0.44021,1.46418 -0.97824,1.46418 -0.53803,0 -33.17822,-34.86611 -72.53376,-77.48024 z"
     id="path29"
     transform="translate(-1.2875111e-6)" /><path
     style="fill:#ffffff;fill-opacity:1;stroke:none;stroke-width:10.2964;stroke-linecap:round;stroke-linejoin:round;stroke-dasharray:none;stroke-opacity:1;paint-order:normal"
     d="m 665.86151,326.03209 c -0.36383,-0.94813 1.37543,-3.12078 4.76122,-5.94761 2.93395,-2.44959 33.25051,-28.0102 67.37013,-56.80135 54.88574,-46.31422 62.03568,-52.68095 62.03568,-55.24031 0,-1.59102 -0.64963,-3.43191 -1.44363,-4.09087 -1.06069,-0.88028 -13.0744,-1.11857 -45.28993,-0.89829 l -43.8463,0.2998 3.84701,-3.73803 C 726.63098,186.65789 865.16136,58.611783 865.48952,58.939946 c 0.22195,0.221947 -12.56263,27.834032 -28.41017,61.360194 -15.84754,33.52615 -28.81371,62.04914 -28.81371,63.38439 0,5.1799 0.62583,5.24128 35.85351,3.51666 17.93957,-0.87825 32.69306,-1.54165 32.78553,-1.4742 0.40011,0.29183 -207.85111,141.21327 -209.09284,141.49095 -0.7574,0.16938 -1.63505,-0.36425 -1.95033,-1.18585 z"
     id="path30"
     transform="translate(-1.2875111e-6)" /></g><g
   inkscape:groupmode="layer"
   id="layer2"
   inkscape:label="ball"
   style="display:inline;opacity:1;mix-blend-mode:normal"
   transform="matrix(0.73665611,0,0,0.74643724,115.17986,113.55111)"><ellipse
     style="display:inline;opacity:1;mix-blend-mode:normal;fill:#ffffff;fill-opacity:1;stroke:none;stroke-width:3.74271;stroke-dasharray:none;stroke-opacity:1;paint-order:normal"
     id="path4"
     cx="454.40741"
     cy="450.11984"
     inkscape:label="white ball"
     rx="301.87592"
     ry="296.97614" /><path
     style="display:inline;opacity:1;mix-blend-mode:normal;fill:#f57a3d;fill-opacity:1;stroke:#000000;stroke-width:4.03781;stroke-linecap:round;stroke-linejoin:round;stroke-dasharray:none;stroke-opacity:1;paint-order:normal"
     d="M 434.49182,158.72128 467.42598,17.974914 c 0,0 8.47881,-22.6837153 18.39671,0.175717 8.35163,19.249375 33.49735,143.907499 33.49735,143.907499 0,0 -37.46439,7.16355 -84.82822,-3.33685 z"
     id="path19"
     sodipodi:nodetypes="ccscc"
     inkscape:label="horn" /><ellipse
     style="display:inline;opacity:1;mix-blend-mode:normal;fill:#f57a3d;fill-opacity:1;stroke:#000000;stroke-width:8.10049;stroke-linecap:round;stroke-linejoin:round;stroke-dasharray:none;stroke-opacity:1;paint-order:normal"
     id="ellipse25"
     transform="matrix(-0.55082741,0.83461918,-0.89046572,-0.45505034,0,0)"
     ry="82.935799"
     rx="105.1004"
     cy="-632.6897"
     cx="-107.38282"
     inkscape:label="outline orange right eye" /><ellipse
     style="display:inline;opacity:1;mix-blend-mode:normal;fill:none;fill-opacity:1;stroke:#000000;stroke-width:8.08129;stroke-linecap:round;stroke-linejoin:round;stroke-dasharray:none;stroke-opacity:1;paint-order:normal"
     id="ellipse21"
     transform="matrix(0.80020897,0.59972128,-0.55636952,0.83093499,0,0)"
     ry="85.948318"
     rx="116.41208"
     cy="-77.188591"
     cx="445.90894"
     inkscape:label="outline orange left eye" /><path
     style="display:inline;opacity:1;mix-blend-mode:normal;fill:#f57a3d;fill-opacity:1;stroke:#f57a3d;stroke-width:5.6778;stroke-linecap:round;stroke-linejoin:round;stroke-dasharray:none;stroke-opacity:1;paint-order:normal"
     d="m 155.02247,438.01201 c 0.0174,-6.27867 2.94971,-30.00904 5.18419,-41.95497 7.03387,-37.60415 22.95861,-76.25614 44.4796,-107.95937 69.5408,-102.44266 191.8307,-151.28501 314.4075,-125.57372 43.35916,9.09487 92.44243,32.99019 127.6553,62.14675 57.78892,47.84967 95.76713,116.72763 104.90548,190.25837 0.75106,6.04335 1.11935,11.2301 0.81842,11.52611 -0.30086,0.29604 -5.14947,-0.71479 -10.77457,-2.24628 -30.90422,-8.41391 -89.93559,-19.46319 -129.29607,-24.20117 -10.70474,-1.28857 -21.00875,-2.57779 -22.89782,-2.86493 -2.99998,-0.45602 -3.90835,-1.55875 -7.17742,-8.71313 -9.72761,-21.2889 -28.99831,-35.53819 -53.02052,-39.20486 -27.94128,-4.26486 -57.92228,10.96382 -70.21768,35.66675 l -3.0347,6.09708 -10.55496,6.7e-4 c -24.77794,7e-4 -75.10657,3.6548 -109.58799,7.95483 -54.38831,6.78253 -113.89124,19.59062 -161.57518,34.77925 -9.83611,3.13308 -18.20643,5.69651 -18.60069,5.69651 -0.39424,0 -0.71506,-0.63355 -0.71289,-1.40789 z"
     id="path7"
     inkscape:label="orange ball" /><path
     style="display:inline;opacity:1;mix-blend-mode:normal;fill:#b3b3b3;fill-opacity:1;stroke:#b2b2b2;stroke-width:3.74271;stroke-linecap:round;stroke-linejoin:round;stroke-dasharray:none;stroke-opacity:1;paint-order:normal"
     d="m 252.9067,461.94604 c -62.96898,-7.88413 -97.40574,27.77366 -97.40574,27.77366 0,0 37.80024,209.9288 224.39856,247.14771 C 613.88394,783.53795 707.81834,614.4891 720.95442,589.82131 733.4961,566.26975 415.48115,879.80639 252.9067,461.94604 Z"
     id="path8"
     inkscape:label="shadow white ball"
     sodipodi:nodetypes="ccssc" /><ellipse
     style="display:inline;opacity:1;mix-blend-mode:normal;fill:#000000;stroke-width:5.04728;stroke-dasharray:none"
     id="ellipse1"
     cx="519.85406"
     cy="415.80908"
     inkscape:label="outline out button"
     rx="94.33622"
     ry="92.805077" /></g><g
   inkscape:groupmode="layer"
   id="layer3"
   inkscape:label="arounds"><path
     style="display:inline;opacity:1;mix-blend-mode:normal;fill:#666666;stroke:#666666;stroke-width:2.77533;stroke-linecap:round;stroke-linejoin:round;stroke-dasharray:none;stroke-opacity:1"
     d="m 228.81493,474.7483 c -0.68112,-3.79729 -1.61711,-19.3736 -1.43674,-23.89698 l 0.18437,-4.60972 11.31888,-3.67246 c 62.82485,-20.38373 129.79354,-31.66385 198.76915,-33.48041 l 14.72824,-0.3879 -0.82754,3.41787 c -1.38609,5.72545 -1.63891,14.31107 -0.59652,20.25618 0.50758,2.89629 1.07049,5.648 1.2503,6.11496 0.27983,0.72648 -2.33531,0.95004 -18.12428,1.54949 -35.96721,1.36549 -63.40574,4.05291 -95.94179,9.39685 -37.2789,6.12294 -67.81705,13.73564 -108.03602,26.93178 -0.70606,0.23165 -1.02927,-0.17431 -1.28783,-1.61966 z"
     id="path3"
     inkscape:label="left around" /><path
     style="display:inline;opacity:1;mix-blend-mode:normal;fill:#666666;stroke:#666666;stroke-width:2.77533;stroke-linecap:round;stroke-linejoin:round;stroke-dasharray:none;stroke-opacity:1;paint-order:normal"
     d="m 662.98267,464.63178 c -22.98319,-6.3152 -57.43569,-13.09454 -87.64867,-17.24695 -10.83386,-1.48896 -30.23913,-3.78294 -32.01437,-3.78456 -0.87309,-5.5e-4 -0.86006,-0.2625 0.1475,-2.90552 1.94453,-5.10133 3.01611,-12.97923 2.635,-19.37204 -0.18981,-3.18237 -0.50867,-6.36005 -0.70931,-7.06148 -0.33298,-1.16574 -0.19634,-1.25222 1.58315,-1.00637 1.07048,0.14793 8.3467,1.05144 16.16834,2.00782 19.85148,2.42729 37.4749,5.26448 57.4651,9.25124 21.91561,4.37078 48.47271,10.86067 50.35447,12.30536 1.18272,0.90813 0.81561,30.06778 -0.37637,29.86547 -0.19197,-0.0327 -3.61433,-0.95643 -7.60494,-2.05297 z"
     id="path6"
     inkscape:label="right around" /><path
     style="display:inline;opacity:1;mix-blend-mode:normal;fill:#4d4d4d;fill-opacity:1;stroke:#4d4d4d;stroke-width:1.6652;stroke-linecap:round;stroke-linejoin:round;stroke-dasharray:none;stroke-opacity:1;paint-order:normal"
     d="m 282.50882,462.14808 -53.34443,15.3431 -1.26506,-33.62872 19.60874,-6.3054 c 0,0 -0.21041,28.79461 35.00075,24.59102 z"
     id="path9"
     inkscape:label="shadow outline around" /><path
     style="display:inline;opacity:1;mix-blend-mode:normal;fill:none;fill-opacity:1;stroke:#000000;stroke-width:2.77533;stroke-linecap:round;stroke-linejoin:round;stroke-dasharray:none;stroke-dashoffset:0;stroke-opacity:1;paint-order:normal"
     d="m 229.1968,478.26444 c 225.79695,-78.69172 441.90642,-9.87479 441.90642,-9.87479"
     id="path23"
     sodipodi:nodetypes="cc"
     inkscape:label="bottom outline around" /><path
     style="display:inline;opacity:1;mix-blend-mode:normal;fill:none;fill-opacity:1;stroke:#000000;stroke-width:2.77533;stroke-linecap:round;stroke-linejoin:round;stroke-dasharray:none;stroke-dashoffset:0;stroke-opacity:1;paint-order:normal"
     d="m 227.83924,443.99221 c 225.79694,-78.69171 443.55998,-9.07202 443.55998,-9.07202"
     id="path24"
     sodipodi:nodetypes="cc"
     inkscape:label="top outline around" /></g><g
   inkscape:groupmode="layer"
   id="layer1"
   inkscape:label="buttons"><ellipse
     style="display:inline;opacity:1;mix-blend-mode:normal;fill:#666666;stroke-width:0.545241"
     id="path5"
     cx="498.13345"
     cy="423.92648"
     inkscape:label="out button"
     rx="66.713615"
     ry="66.502235" /><ellipse
     style="display:inline;opacity:1;mix-blend-mode:normal;fill:#ffffff;fill-opacity:1;stroke:#000000;stroke-width:2.77533;stroke-linecap:round;stroke-linejoin:round;stroke-dasharray:none;stroke-opacity:1"
     id="ellipse7"
     cx="499.00403"
     cy="423.34793"
     inkscape:label="button out"
     rx="47.255474"
     ry="47.105747" /><ellipse
     style="display:inline;opacity:1;mix-blend-mode:normal;fill:#ffffff;fill-opacity:1;stroke:#000000;stroke-width:1.6652;stroke-linecap:round;stroke-linejoin:round;stroke-dasharray:none;stroke-opacity:1;paint-order:normal"
     id="ellipse6"
     cx="499.00403"
     cy="423.63718"
     inkscape:label="button in"
     rx="33.356808"
     ry="33.251118" /></g><g
   inkscape:groupmode="layer"
   id="layer7"
   inkscape:label="layout"><ellipse
     style="display:inline;opacity:1;mix-blend-mode:normal;fill:none;fill-opacity:1;stroke:#000000;stroke-width:2.99417;stroke-linecap:round;stroke-linejoin:round;stroke-dasharray:none;stroke-opacity:1;paint-order:normal"
     id="ellipse24"
     cx="449.92188"
     cy="449.53738"
     inkscape:label="outline"
     rx="222.37872"
     ry="221.67409" /></g><g
   inkscape:groupmode="layer"
   id="layer4"
   inkscape:label="left eye"><ellipse
     style="display:inline;opacity:1;mix-blend-mode:normal;fill:#f57a3d;fill-opacity:1;stroke:none;stroke-width:4.70141;stroke-linecap:round;stroke-linejoin:round;stroke-dasharray:none;stroke-opacity:1;paint-order:normal"
     id="ellipse20"
     transform="matrix(0.79638968,0.60478382,-0.55130511,0.83430371,0,0)"
     ry="63.895973"
     rx="86.166939"
     cy="-36.567074"
     cx="489.09503"
     inkscape:label="orange eye" /><ellipse
     style="display:inline;opacity:1;mix-blend-mode:normal;fill:#ffffff;fill-opacity:1;stroke:#000000;stroke-width:3.75168;stroke-linecap:round;stroke-linejoin:round;stroke-dasharray:none;stroke-opacity:1;paint-order:normal"
     id="path13"
     transform="matrix(0.78624583,0.61791382,-0.53816701,0.84283822,0,0)"
     ry="49.245678"
     rx="68.368927"
     cy="-45.499035"
     cx="489.20352"
     inkscape:label="white eye" /><path
     style="display:inline;opacity:1;mix-blend-mode:normal;fill:none;fill-opacity:1;stroke:#000000;stroke-width:3.74271;stroke-linecap:round;stroke-linejoin:round;stroke-dasharray:none;stroke-opacity:1;paint-order:normal"
     d="m 446.51169,233.60764 -76.9287,59.24445"
     id="path17"
     inkscape:label="line eye" /><ellipse
     style="display:inline;opacity:1;mix-blend-mode:normal;fill:#1ac3e5;fill-opacity:1;stroke:#000000;stroke-width:3.75668;stroke-linecap:round;stroke-linejoin:round;stroke-dasharray:none;stroke-opacity:1;paint-order:normal"
     id="ellipse19"
     transform="matrix(0.77842193,0.62774143,-0.5283292,0.84903961,0,0)"
     ry="24.954082"
     rx="43.833515"
     cy="-51.115944"
     cx="490.88297"
     inkscape:label="blue eye" /></g><g
   inkscape:groupmode="layer"
   id="layer5"
   inkscape:label="right eye"><ellipse
     style="display:inline;opacity:1;mix-blend-mode:normal;fill:#f57a3d;fill-opacity:1;stroke:none;stroke-width:3.35632;stroke-linecap:round;stroke-linejoin:round;stroke-dasharray:none;stroke-opacity:1;paint-order:normal"
     id="ellipse22"
     transform="matrix(-0.54576944,0.83793539,-0.88801138,-0.45982148,0,0)"
     ry="61.26403"
     rx="78.140373"
     cy="-626.63678"
     cx="-31.726784"
     inkscape:label="orange eye" /><ellipse
     style="display:inline;opacity:1;mix-blend-mode:normal;fill:#ffffff;fill-opacity:1;stroke:#000000;stroke-width:3.74625;stroke-linecap:round;stroke-linejoin:round;stroke-dasharray:none;stroke-opacity:1;paint-order:normal"
     id="path13-4"
     transform="matrix(-0.52903813,0.84859805,-0.87954328,-0.4758189,0,0)"
     ry="45.195004"
     rx="62.610352"
     cy="-625.58679"
     cx="-44.112904"
     inkscape:label="white eye" /><path
     style="display:inline;opacity:1;mix-blend-mode:normal;fill:none;fill-opacity:1;stroke:#000000;stroke-width:3.74271;stroke-linecap:round;stroke-linejoin:round;stroke-dasharray:none;stroke-opacity:1;paint-order:normal"
     d="m 535.48463,237.04763 76.54021,45.10224"
     id="path18"
     inkscape:label="line eye" /><ellipse
     style="display:inline;opacity:1;mix-blend-mode:normal;fill:#1ac3e5;fill-opacity:1;stroke:#000000;stroke-width:3.74729;stroke-linecap:round;stroke-linejoin:round;stroke-dasharray:none;stroke-opacity:1;paint-order:normal"
     id="ellipse18"
     transform="matrix(-0.53274852,0.8462736,-0.88146877,-0.47224232,0,0)"
     ry="22.365551"
     rx="40.42989"
     cy="-625.85486"
     cx="-41.101112"
     inkscape:label="blue eye" /></g><g
   inkscape:groupmode="layer"
   id="layer6"
   inkscape:label="Mouth"><path
     style="display:inline;opacity:1;mix-blend-mode:normal;fill:#ffffff;fill-opacity:1;stroke:#000000;stroke-width:3.74271;stroke-linecap:round;stroke-linejoin:round;stroke-dasharray:none;stroke-opacity:1;paint-order:normal"
     d="m 466.7151,323.04766 c 31.85938,11.46667 59.05638,-0.76445 59.05638,-0.76445 0,0 -3.56749,24.10321 -27.65619,24.10321 -24.08882,0 -31.40019,-23.33876 -31.40019,-23.33876 z"
     id="path14"
     sodipodi:nodetypes="ccsc"
     inkscape:label="tooth" /><path
     style="display:inline;opacity:1;mix-blend-mode:normal;fill:#ffffff;fill-opacity:1;stroke:#000000;stroke-width:3.74271;stroke-linecap:round;stroke-linejoin:round;stroke-dasharray:none;stroke-opacity:1;paint-order:normal"
     d="m 489.53995,328.49847 -2.3352,15.27036"
     id="path15"
     sodipodi:nodetypes="cc"
     inkscape:label="right tooth" /><path
     style="display:inline;opacity:1;mix-blend-mode:normal;fill:#ffffff;fill-opacity:1;stroke:#000000;stroke-width:3.74271;stroke-linecap:round;stroke-linejoin:round;stroke-dasharray:none;stroke-opacity:1;paint-order:normal"
     d="m 506.16111,327.68765 2.33521,15.94603"
     id="path16"
     sodipodi:nodetypes="cc"
     inkscape:label="left tooth" /></g><g
   inkscape:label="Droplet"
   style="display:none;opacity:0.5;fill:#ffffff;stroke:#000000;stroke-width:2"
   class="prefab"
   id="g2"
   transform="translate(0,1.0440835)"
   sodipodi:insensitive="true">
  <path
   d="M 853.57143,50.000001 H 53.571427 V 138.88889 H 853.57143 Z m 0,177.777779 H 53.571427 v 88.88889 H 853.57143 Z m 0,177.77778 H 53.571427 v 88.88889 H 853.57143 Z m 0,177.77777 H 53.571427 v 88.88889 H 853.57143 Z m 0,177.77778 H 53.571427 V 850 H 853.57143 Z M 53.571427,50 V 850 H 142.46032 V 50 Z M 231.34921,50 V 850 H 320.2381 V 50 Z m 177.77778,0 v 800 h 88.88888 V 50 Z m 177.77777,0 v 800 h 88.88889 V 50 Z m 177.77778,0 v 800 h 88.88889 V 50 Z"
   id="path1" />
  <path
   d="M 450,50 A 400,400 0 0 0 50,450 400,400 0 0 0 450,850 400,400 0 0 0 850,450 400,400 0 0 0 450,50 Z m 0,88.88867 A 311.11111,311.11111 0 0 1 761.11133,450 311.11111,311.11111 0 0 1 450,761.11133 311.11111,311.11111 0 0 1 138.88867,450 311.11111,311.11111 0 0 1 450,138.88867 Z m 0,88.88867 A 222.22223,222.22223 0 0 0 227.77734,450 222.22223,222.22223 0 0 0 450,672.22266 222.22223,222.22223 0 0 0 672.22266,450 222.22223,222.22223 0 0 0 450,227.77734 Z m 0,88.88868 A 133.33333,133.33333 0 0 1 583.33398,450 133.33333,133.33333 0 0 1 450,583.33398 133.33333,133.33333 0 0 1 316.66602,450 133.33333,133.33333 0 0 1 450,316.66602 Z m 0,88.88867 A 44.444447,44.444447 0 0 0 405.55469,450 44.444447,44.444447 0 0 0 450,494.44531 44.444447,44.444447 0 0 0 494.44531,450 44.444447,44.444447 0 0 0 450,405.55469 Z"
   id="path2" />
</g></svg>
